<?xml version="1.0" standalone="no"?>
<!DOCTYPE svg PUBLIC "-//W3C//DTD SVG 20010904//EN"
 "http://www.w3.org/TR/2001/REC-SVG-20010904/DTD/svg10.dtd">
<svg version="1.0" xmlns="http://www.w3.org/2000/svg"
 width="672.000000pt" height="484.000000pt" viewBox="0 0 672.000000 484.000000"
 preserveAspectRatio="xMidYMid meet">
<metadata>
Created by potrace 1.16, written by Peter Selinger 2001-2019
</metadata>
<g transform="translate(0.000000,484.000000) scale(0.100000,-0.100000)"
fill="#000000" stroke="none">
<path d="M3110 4230 c-424 -52 -777 -221 -1083 -519 -158 -154 -272 -310 -374
-514 -60 -118 -142 -337 -120 -319 8 7 19 30 26 53 7 22 14 39 16 37 2 -2 -7
-42 -21 -88 -43 -150 -65 -288 -69 -435 -4 -150 2 -129 25 80 16 146 74 404
96 424 4 3 4 -5 0 -19 -57 -203 -87 -389 -84 -508 1 -57 2 -59 5 -17 12 197
51 393 113 570 35 98 130 285 193 378 164 245 410 461 672 592 190 95 318 136
550 176 277 48 675 -12 960 -146 262 -122 522 -338 678 -562 232 -333 331
-644 331 -1038 -1 -481 -146 -869 -464 -1237 -62 -72 -39 -56 69 47 l74 70
-33 -49 c-88 -131 -241 -274 -421 -394 -109 -72 -128 -84 -110 -76 10 5 12 3
7 -5 -5 -7 -15 -10 -23 -7 -8 3 -12 2 -9 -3 3 -5 -8 -14 -24 -21 -17 -7 -33
-16 -36 -21 -5 -9 48 12 111 43 54 27 205 130 286 194 89 71 245 239 324 349
63 88 172 285 157 285 -4 0 -2 4 4 8 20 14 96 228 133 372 36 145 45 224 46
407 0 101 4 179 9 176 5 -3 7 11 4 31 -2 20 -1 36 3 36 14 0 19 -155 9 -315
-10 -157 -17 -202 -75 -461 -7 -34 -25 -84 -39 -112 -14 -27 -23 -52 -20 -55
3 -3 -6 -23 -20 -44 -14 -20 -26 -43 -26 -49 0 -19 -36 -94 -42 -89 -3 3 -8
-1 -12 -10 -3 -10 -2 -14 5 -9 6 3 5 -3 -3 -15 -7 -12 -16 -21 -21 -21 -4 0
-5 -5 -1 -12 4 -7 3 -8 -4 -4 -7 4 -13 2 -13 -3 -3 -20 -5 -26 -18 -51 -7 -14
-23 -33 -35 -43 -11 -10 -15 -16 -8 -12 32 17 -101 -147 -203 -250 -284 -288
-646 -473 -1040 -533 -44 -7 -51 -10 -25 -11 19 0 78 8 130 19 52 11 100 19
105 19 27 -2 -137 -38 -242 -53 -65 -10 -140 -21 -168 -25 l-50 -8 65 -1 c148
-3 398 46 580 114 276 103 500 252 710 471 122 127 212 251 292 401 100 185
183 426 172 497 -4 26 -3 27 6 10 8 -16 9 -11 5 20 -5 31 -3 37 5 25 9 -12 11
-8 6 17 -3 17 -1 33 4 35 17 5 33 247 26 390 -15 327 -99 633 -236 866 -298
503 -797 849 -1351 937 -123 20 -384 27 -489 15z"/>
<path d="M3150 3433 c-17 -21 -42 -62 -56 -91 -19 -40 -29 -52 -41 -48 -13 5
-14 4 -3 -9 20 -24 -30 -92 -86 -116 -24 -11 -44 -22 -44 -25 0 -3 7 -18 16
-33 15 -25 15 -30 0 -59 -9 -17 -13 -37 -10 -45 3 -8 -2 -17 -10 -20 -13 -5
-14 -11 -5 -30 9 -19 7 -30 -10 -58 -12 -19 -21 -40 -21 -46 0 -17 61 -46 140
-68 85 -23 132 -47 163 -85 43 -51 59 -143 38 -218 -14 -47 12 -42 65 12 112
118 97 308 -42 518 -27 40 -56 96 -66 123 -21 60 -23 184 -4 273 7 34 11 62
10 62 -1 0 -17 -17 -34 -37z"/>
<path d="M3337 3403 c2 -32 6 -68 9 -80 5 -25 63 -68 106 -78 l28 -7 -15 36
c-16 39 -5 51 13 14 9 -19 11 -20 11 -5 1 29 -24 80 -55 111 -28 28 -83 66
-95 66 -3 0 -4 -26 -2 -57z"/>
<path d="M3631 3424 c-55 -28 -111 -91 -111 -127 0 -18 1 -17 20 4 21 24 21
23 0 -19 l-21 -44 33 7 c49 11 96 34 103 53 8 19 34 146 31 149 -1 2 -26 -9
-55 -23z"/>
<path d="M3271 3295 c-1 -118 20 -178 132 -362 89 -145 108 -208 86 -283 -15
-50 -80 -126 -147 -170 -53 -36 -31 -33 63 10 117 52 171 123 163 212 -6 57
-54 157 -137 285 -98 149 -136 235 -151 337 -7 48 -8 47 -9 -29z"/>
<path d="M3512 3168 l-10 -43 -2 35 c-1 29 -3 32 -10 15 -23 -53 -5 -145 38
-200 l18 -23 28 64 c33 76 30 113 -13 162 -16 17 -31 32 -34 32 -3 0 -10 -19
-15 -42z"/>
<path d="M4285 2193 c-84 -20 -265 -239 -369 -449 -48 -96 -110 -173 -189
-235 -59 -47 -108 -53 -132 -16 -13 21 -13 30 0 80 14 54 106 270 125 292 5 6
31 12 57 14 27 1 57 4 68 6 11 2 27 5 35 6 8 2 -22 5 -67 8 l-83 6 40 75 c42
81 45 90 30 90 -5 0 -28 -37 -51 -82 -23 -46 -47 -86 -53 -90 -6 -4 -38 -8
-71 -9 -102 -2 -121 -17 -22 -18 48 -1 87 -2 87 -4 0 -2 -22 -52 -48 -111 -43
-97 -53 -111 -93 -135 -86 -53 -196 -104 -211 -99 -22 9 -53 97 -41 117 17 27
38 19 36 -12 -2 -34 20 -32 25 2 4 26 -14 51 -37 51 -9 0 -53 -33 -99 -73
-124 -108 -152 -127 -182 -127 -41 0 -43 23 -11 103 16 40 27 74 25 76 -2 3
-19 -9 -38 -25 -19 -16 -65 -55 -103 -87 -106 -91 -172 -117 -189 -73 -3 8 7
43 21 78 36 84 41 114 21 121 -22 9 -61 -7 -116 -47 -73 -52 -73 -52 -56 -11
9 21 16 39 16 41 0 2 39 30 88 62 131 89 252 226 252 286 0 9 8 16 18 16 15 1
16 1 1 10 -9 5 -19 21 -23 34 -12 49 -80 42 -136 -14 -32 -32 -46 -38 -111
-48 -172 -25 -169 -25 -169 -3 0 27 -13 27 -25 -1 -8 -18 -33 -27 -140 -54
-132 -32 -232 -67 -250 -86 -7 -8 -4 -9 10 -3 125 48 339 104 352 92 2 -3 -25
-74 -62 -158 -89 -203 -109 -257 -161 -433 -45 -152 -50 -176 -36 -176 4 0 15
35 26 78 49 200 236 673 278 698 20 13 237 40 231 29 -4 -5 -14 -22 -24 -36
-51 -74 -213 -435 -202 -452 3 -5 35 21 72 56 66 64 116 97 146 97 19 0 20 4
-16 -80 -34 -81 -33 -114 6 -132 32 -14 109 22 185 89 96 84 94 83 75 35 -20
-50 -14 -88 16 -97 41 -13 100 17 178 92 l76 72 17 -42 c24 -60 22 -79 -12
-109 -19 -17 -28 -32 -24 -42 11 -28 42 -17 76 25 22 27 54 51 97 70 35 16 85
42 111 58 l47 29 -5 -68 c-4 -65 -3 -69 22 -85 18 -12 37 -16 62 -12 39 7 117
60 163 112 l30 35 -6 -49 c-5 -44 -3 -52 21 -76 23 -23 33 -26 63 -22 47 8
107 40 164 88 26 21 49 39 52 39 3 0 3 -17 0 -39 -10 -75 62 -104 159 -62 47
20 148 93 187 135 42 45 13 41 -36 -5 -111 -103 -197 -147 -252 -128 -29 10
-48 40 -37 58 3 4 25 11 48 14 31 4 51 14 71 37 31 35 34 52 11 74 -28 29 -58
16 -164 -70 -111 -89 -170 -124 -212 -124 -53 0 -68 65 -35 152 17 43 26 52
100 94 105 58 166 106 254 196 151 157 178 312 48 281z m59 -29 c11 -28 7 -48
-24 -112 -33 -70 -119 -167 -212 -239 -69 -53 -178 -116 -178 -102 0 16 57
125 104 197 53 83 199 239 240 257 42 18 63 18 70 -1z m-1440 -222 c-15 -26
-57 -76 -94 -112 -66 -65 -170 -132 -170 -110 0 18 107 221 133 252 18 22 34
29 87 35 78 10 83 3 44 -65z"/>
</g>
</svg>
